<?xml version="1.0" encoding="UTF-8"?> <svg xmlns="http://www.w3.org/2000/svg" width="200" height="200" viewBox="0 0 200 200" fill="none"> <path d="M0 40C0 17.9086 17.9086 0 40 0H160C182.091 0 200 17.9086 200 40V160C200 182.091 182.091 200 160 200H40C17.9086 200 0 182.091 0 160V40Z" fill="#F6F6F6"></path> <path fill-rule="evenodd" clip-rule="evenodd" d="M160 4H40C20.1178 4 4 20.1177 4 40V160C4 179.882 20.1177 196 40 196H160C179.882 196 196 179.882 196 160V40C196 20.1178 179.882 4 160 4ZM40 0C17.9086 0 0 17.9086 0 40V160C0 182.091 17.9086 200 40 200H160C182.091 200 200 182.091 200 160V40C200 17.9086 182.091 0 160 0H40Z" fill="#EEEEEE"></path> <path fill-rule="evenodd" clip-rule="evenodd" d="M99.9993 98.333C95.397 98.333 91.666 102.064 91.666 106.666C91.666 111.269 95.397 115 99.9993 115C104.602 115 108.333 111.269 108.333 106.666C108.333 102.064 104.602 98.333 99.9993 98.333ZM81.666 106.666C81.666 96.5411 89.8741 88.333 99.9993 88.333C110.125 88.333 118.333 96.5411 118.333 106.666C118.333 116.792 110.125 125 99.9993 125C89.8741 125 81.666 116.792 81.666 106.666Z" fill="#3551A0"></path> <path fill-rule="evenodd" clip-rule="evenodd" d="M126.868 79.7975C128.821 81.7501 128.821 84.9159 126.868 86.8685L113.202 100.535C111.249 102.488 108.083 102.488 106.13 100.535C104.178 98.5826 104.178 95.4168 106.13 93.4641L119.797 79.7975C121.75 77.8449 124.916 77.8449 126.868 79.7975Z" fill="#3551A0"></path> <path fill-rule="evenodd" clip-rule="evenodd" d="M100 51.3633C88.5883 51.3633 77.4592 54.9129 68.1549 61.5203C58.8507 68.1277 51.832 77.4656 48.0717 88.24C44.3114 99.0144 43.9956 110.692 47.1681 121.653C50.1818 132.067 56.2014 141.344 64.4545 148.334H135.546C143.799 141.344 149.818 132.067 152.832 121.653C156.004 110.692 155.689 99.0144 151.928 88.24C148.168 77.4656 141.149 68.1277 131.845 61.5203C122.541 54.9129 111.412 51.3633 100 51.3633ZM62.3649 53.3671C73.3608 45.5583 86.5135 41.3633 100 41.3633C113.487 41.3633 126.639 45.5583 137.635 53.3671C148.631 61.1758 156.926 72.2115 161.37 84.9449C165.814 97.6782 166.187 111.479 162.438 124.433C158.688 137.388 151.002 148.856 140.444 157.248C139.56 157.951 138.463 158.334 137.333 158.334H62.6667C61.5367 158.334 60.4401 157.951 59.5556 157.248C48.9977 148.856 41.3116 137.388 37.5623 124.433C33.813 111.479 34.1862 97.6782 38.6302 84.9449C43.0742 72.2115 51.369 61.1758 62.3649 53.3671Z" fill="#3551A0"></path> </svg> 