<?xml version="1.0" encoding="UTF-8"?> <svg xmlns="http://www.w3.org/2000/svg" width="200" height="200" viewBox="0 0 200 200" fill="none"> <path d="M0 40C0 17.9086 17.9086 0 40 0H160C182.091 0 200 17.9086 200 40V160C200 182.091 182.091 200 160 200H40C17.9086 200 0 182.091 0 160V40Z" fill="#F6F6F6"></path> <path fill-rule="evenodd" clip-rule="evenodd" d="M160 4H40C20.1178 4 4 20.1177 4 40V160C4 179.882 20.1177 196 40 196H160C179.882 196 196 179.882 196 160V40C196 20.1178 179.882 4 160 4ZM40 0C17.9086 0 0 17.9086 0 40V160C0 182.091 17.9086 200 40 200H160C182.091 200 200 182.091 200 160V40C200 17.9086 182.091 0 160 0H40Z" fill="#EEEEEE"></path> <path fill-rule="evenodd" clip-rule="evenodd" d="M147.48 71.8402C152.811 71.8403 157.923 73.9581 161.693 77.7273L147.48 71.8402ZM147.48 71.8402L65.9725 71.8402C65.9724 71.8402 65.9725 71.8402 65.9725 71.8402C57.3128 71.8405 49.0085 75.2801 42.8855 81.4031C36.7624 87.5262 33.3225 95.8309 33.3227 104.49C33.3225 113.149 36.7623 121.454 42.8853 127.577C49.0082 133.7 57.3128 137.14 65.972 137.139L147.056 137.139L149.33 136.751C152.605 136.191 155 133.352 155 130.03C155 127.233 153.293 124.721 150.693 123.691L146.524 122.039L65.9281 121.995C65.9272 121.995 65.9291 121.995 65.9281 121.995C61.2743 121.995 56.8088 120.146 53.5184 116.855C50.2273 113.564 48.378 109.1 48.3781 104.445C48.3782 99.7912 50.2266 95.3276 53.5183 92.0359C56.8095 88.7447 61.2735 86.8958 65.9279 86.8957L141.186 86.9399C143.947 86.9416 146.184 89.1815 146.183 91.9429C146.181 94.7043 143.941 96.9416 141.18 96.9399L65.9281 96.8957C63.9266 96.8965 62.0044 97.692 60.5894 99.107C59.1734 100.523 58.3782 102.443 58.3781 104.446C58.3781 106.448 59.1735 108.368 60.5895 109.784C62.0055 111.2 63.9257 111.996 65.9279 111.995L147.48 112.04C147.481 112.04 147.479 112.04 147.48 112.04C152.81 112.039 157.924 109.922 161.693 106.153C165.462 102.384 167.58 97.2711 167.58 91.94C167.58 86.6098 165.462 81.497 161.693 77.7273M160.814 118.926C163.456 121.933 165 125.853 165 130.03C165 138.225 159.093 145.227 151.015 146.608L148.322 147.068C148.044 147.116 147.762 147.139 147.48 147.139L65.9724 147.139C65.9723 147.139 65.9725 147.139 65.9724 147.139C54.6609 147.14 43.8125 142.646 35.8142 134.648C27.8158 126.65 23.3224 115.802 23.3227 104.49C23.3224 93.1787 27.8161 82.3304 35.8145 74.332C43.813 66.3335 54.6607 61.8405 65.9722 61.8402L147.48 61.8402C155.463 61.8404 163.119 65.0116 168.764 70.6562C174.409 76.3011 177.58 83.9572 177.58 91.9401C177.58 99.9231 174.409 107.579 168.764 113.224C166.42 115.568 163.73 117.485 160.814 118.926Z" fill="#3551A0"></path> </svg> 