<?xml version="1.0" encoding="UTF-8"?> <svg xmlns="http://www.w3.org/2000/svg" width="200" height="200" viewBox="0 0 200 200" fill="none"> <path d="M0 40C0 17.9086 17.9086 0 40 0H160C182.091 0 200 17.9086 200 40V160C200 182.091 182.091 200 160 200H40C17.9086 200 0 182.091 0 160V40Z" fill="#F6F6F6"></path> <path fill-rule="evenodd" clip-rule="evenodd" d="M160 4H40C20.1178 4 4 20.1177 4 40V160C4 179.882 20.1177 196 40 196H160C179.882 196 196 179.882 196 160V40C196 20.1178 179.882 4 160 4ZM40 0C17.9086 0 0 17.9086 0 40V160C0 182.091 17.9086 200 40 200H160C182.091 200 200 182.091 200 160V40C200 17.9086 182.091 0 160 0H40Z" fill="#EEEEEE"></path> <path fill-rule="evenodd" clip-rule="evenodd" d="M48.334 40C48.334 37.2386 50.5726 35 53.334 35H106.667C109.429 35 111.667 37.2386 111.667 40V78.0295L142.241 110.795C148.06 116.568 151.416 124.374 151.599 132.572C151.782 140.806 148.75 148.788 143.146 154.824C137.541 160.86 129.806 164.474 121.581 164.901C113.355 165.328 105.287 162.533 99.0883 157.11C99.0359 157.064 98.9844 157.017 98.9339 156.969L54.0272 114.235C52.2257 112.52 50.7914 110.456 49.8127 108.17C48.8345 105.884 48.3314 103.423 48.334 100.937C48.334 100.936 48.334 100.938 48.334 100.937V40ZM58.334 45L58.334 100.946C58.3326 102.077 58.5613 103.196 59.0061 104.235C59.4508 105.274 60.1023 106.212 60.9208 106.991C60.921 106.991 60.9206 106.991 60.9208 106.991L105.748 149.649C109.979 153.317 115.468 155.205 121.062 154.915C126.69 154.623 131.983 152.149 135.817 148.019C139.652 143.89 141.727 138.428 141.601 132.794C141.475 127.16 139.16 121.797 135.145 117.842C135.095 117.793 135.046 117.742 134.998 117.691L103.012 83.4111C102.148 82.4853 101.667 81.2662 101.667 80V45H58.334Z" fill="#3551A0"></path> <path fill-rule="evenodd" clip-rule="evenodd" d="M48.334 80C48.334 77.2386 50.5726 75 53.334 75C61.7325 75 69.787 78.3363 75.7257 84.275C81.6644 90.2136 85.0006 98.2681 85.0006 106.667C85.0006 115.216 81.8636 122.857 76.2015 128.623C74.2668 130.594 71.1011 130.622 69.1308 128.688C67.1605 126.753 67.1317 123.587 69.0664 121.617C72.8444 117.769 75.0007 112.664 75.0007 106.667C75.0007 100.92 72.7179 95.4093 68.6546 91.346C64.5913 87.2827 59.0803 85 53.334 85C50.5726 85 48.334 82.7614 48.334 80Z" fill="#3551A0"></path> </svg> 