<?xml version="1.0" encoding="UTF-8"?> <svg xmlns="http://www.w3.org/2000/svg" width="200" height="200" viewBox="0 0 200 200" fill="none"> <path d="M0 40C0 17.9086 17.9086 0 40 0H160C182.091 0 200 17.9086 200 40V160C200 182.091 182.091 200 160 200H40C17.9086 200 0 182.091 0 160V40Z" fill="#F6F6F6"></path> <path fill-rule="evenodd" clip-rule="evenodd" d="M160 4H40C20.1178 4 4 20.1177 4 40V160C4 179.882 20.1177 196 40 196H160C179.882 196 196 179.882 196 160V40C196 20.1178 179.882 4 160 4ZM40 0C17.9086 0 0 17.9086 0 40V160C0 182.091 17.9086 200 40 200H160C182.091 200 200 182.091 200 160V40C200 17.9086 182.091 0 160 0H40Z" fill="#EEEEEE"></path> <path fill-rule="evenodd" clip-rule="evenodd" d="M58.0382 54.0382C70.2281 41.8482 86.7612 35 104 35C121.24 35 137.773 41.8482 149.963 54.0382C155.998 60.074 160.786 67.2396 164.053 75.1258C167.319 83.012 169.001 91.4644 169.001 100C169.001 108.536 167.319 116.989 164.053 124.875C160.786 132.761 155.998 139.927 149.963 145.963C143.927 151.998 136.761 156.786 128.875 160.053C120.989 163.319 112.536 165.001 104 165.001C95.4644 165.001 87.012 163.319 79.1258 160.053C71.2396 156.786 64.074 151.998 58.0382 145.963C45.8482 133.773 39 117.24 39 100C39 82.7612 45.8482 66.2281 58.0382 54.0382ZM104 45C89.4134 45 75.4238 50.7947 65.1092 61.1092C54.7947 71.4238 49 85.4134 49 100C49 114.587 54.7947 128.577 65.1092 138.892C70.2165 143.999 76.2797 148.05 82.9526 150.814C89.6256 153.578 96.7776 155.001 104 155.001C111.223 155.001 118.375 153.578 125.048 150.814C131.721 148.05 137.784 143.999 142.892 138.892C147.999 133.784 152.05 127.721 154.814 121.048C157.578 114.375 159.001 107.223 159.001 100C159.001 92.7776 157.578 85.6256 154.814 78.9526C152.05 72.2797 147.999 66.2165 142.892 61.1092C132.577 50.7947 118.587 45 104 45Z" fill="#3551A0"></path> <path fill-rule="evenodd" clip-rule="evenodd" d="M107.028 35.1403C109.786 34.9905 112.142 37.1043 112.292 39.8617C112.788 48.9783 111.357 58.097 108.093 66.6237C104.829 75.1505 99.8058 82.894 93.3499 89.3499C86.894 95.8058 79.1505 100.829 70.6237 104.093C62.097 107.357 52.9783 108.788 43.8617 108.292C41.1043 108.142 38.9905 105.786 39.1403 103.028C39.2901 100.271 41.6468 98.1572 44.4042 98.307C52.1182 98.7261 59.834 97.5154 67.049 94.7538C74.2639 91.9921 80.8161 87.7415 86.2788 82.2788C91.7415 76.8161 95.9921 70.2639 98.7538 63.049C101.515 55.834 102.726 48.1182 102.307 40.4042C102.157 37.6468 104.271 35.2901 107.028 35.1403Z" fill="#3551A0"></path> <path fill-rule="evenodd" clip-rule="evenodd" d="M137.376 95.9063C145.902 92.6426 155.021 91.2117 164.138 91.7071C166.895 91.8569 169.009 94.2136 168.859 96.9709C168.709 99.7283 166.352 101.842 163.595 101.692C155.881 101.273 148.165 102.484 140.95 105.246C133.735 108.007 127.183 112.258 121.72 117.72C116.258 123.183 112.007 129.735 109.246 136.95C106.484 144.165 105.273 151.881 105.692 159.595C105.842 162.352 103.728 164.709 100.971 164.859C98.2136 165.009 95.8569 162.895 95.7071 160.138C95.2117 151.021 96.6426 141.902 99.9063 133.376C103.17 124.849 108.193 117.105 114.649 110.649C121.105 104.193 128.849 99.17 137.376 95.9063Z" fill="#3551A0"></path> </svg> 