<?xml version="1.0" encoding="UTF-8"?> <svg xmlns="http://www.w3.org/2000/svg" width="200" height="200" viewBox="0 0 200 200" fill="none"> <path d="M0 40C0 17.9086 17.9086 0 40 0H160C182.091 0 200 17.9086 200 40V160C200 182.091 182.091 200 160 200H40C17.9086 200 0 182.091 0 160V40Z" fill="#F6F6F6"></path> <path fill-rule="evenodd" clip-rule="evenodd" d="M160 4H40C20.1178 4 4 20.1177 4 40V160C4 179.882 20.1177 196 40 196H160C179.882 196 196 179.882 196 160V40C196 20.1178 179.882 4 160 4ZM40 0C17.9086 0 0 17.9086 0 40V160C0 182.091 17.9086 200 40 200H160C182.091 200 200 182.091 200 160V40C200 17.9086 182.091 0 160 0H40Z" fill="#EEEEEE"></path> <path fill-rule="evenodd" clip-rule="evenodd" d="M104 35C106.761 35 109 37.2386 109 40V46.6667C109 49.4281 106.761 51.6667 104 51.6667C101.239 51.6667 99 49.4281 99 46.6667V40C99 37.2386 101.239 35 104 35ZM57.7978 53.7978C59.7504 51.8452 62.9162 51.8452 64.8689 53.7978L69.5355 58.4645C71.4882 60.4171 71.4882 63.5829 69.5355 65.5355C67.5829 67.4882 64.4171 67.4882 62.4645 65.5355L57.7978 60.8689C55.8452 58.9162 55.8452 55.7504 57.7978 53.7978ZM150.202 53.7978C152.155 55.7504 152.155 58.9162 150.202 60.8689L145.536 65.5355C143.583 67.4882 140.417 67.4882 138.464 65.5355C136.512 63.5829 136.512 60.4171 138.464 58.4645L143.131 53.7978C145.084 51.8452 148.25 51.8452 150.202 53.7978ZM39 100C39 97.2386 41.2386 95 44 95H50.6667C53.4281 95 55.6667 97.2386 55.6667 100C55.6667 102.761 53.4281 105 50.6667 105H44C41.2386 105 39 102.761 39 100ZM152.333 100C152.333 97.2386 154.572 95 157.333 95H164C166.761 95 169 97.2386 169 100C169 102.761 166.761 105 164 105H157.333C154.572 105 152.333 102.761 152.333 100Z" fill="#3551A0"></path> <path fill-rule="evenodd" clip-rule="evenodd" d="M103.999 71.667C98.0527 71.667 92.2567 73.5381 87.4326 77.0151C82.6084 80.4922 79.0005 85.399 77.12 91.0405C75.2395 96.6821 75.1817 102.772 76.9548 108.448C78.7202 114.1 82.2117 119.056 86.9378 122.621C87.0499 122.702 87.1593 122.789 87.2658 122.881C87.3768 122.977 87.4825 123.076 87.5831 123.179C90.7108 126.296 93.0671 130.1 94.4636 134.29C95.8248 138.373 96.2371 142.711 95.6717 146.975C95.7491 149.073 96.6166 151.069 98.1068 152.56C99.6696 154.122 101.789 155 103.999 155C106.209 155 108.329 154.122 109.892 152.56C111.382 151.069 112.25 149.073 112.327 146.975C111.762 142.711 112.174 138.373 113.535 134.29C114.941 130.071 117.321 126.242 120.482 123.114C120.644 122.953 120.817 122.804 120.999 122.667C125.757 119.099 129.271 114.125 131.044 108.448C132.817 102.772 132.759 96.6821 130.879 91.0405C128.998 85.399 125.39 80.4922 120.566 77.0151C115.742 73.5381 109.946 71.667 103.999 71.667ZM80.7003 130.44C74.4157 125.63 69.7713 118.99 67.4097 111.43C65.0108 103.751 65.0889 95.5109 67.6332 87.8783C70.1774 80.2456 75.0586 73.607 81.5855 68.9027C88.1123 64.1984 95.9539 61.667 103.999 61.667C112.045 61.667 119.886 64.1984 126.413 68.9027C132.94 73.607 137.821 80.2456 140.366 87.8783C142.91 95.5109 142.988 103.751 140.589 111.43C138.227 118.99 133.583 125.63 127.298 130.44C125.362 132.423 123.899 134.82 123.022 137.452C122.112 140.182 121.857 143.088 122.279 145.935C122.315 146.177 122.333 146.422 122.333 146.667C122.333 151.529 120.401 156.192 116.963 159.631C113.525 163.069 108.862 165 103.999 165C99.137 165 94.4739 163.069 91.0357 159.631C87.5976 156.192 85.666 151.529 85.666 146.667C85.666 146.422 85.684 146.177 85.7199 145.935C86.1414 143.088 85.8868 140.182 84.9768 137.452C84.0995 134.82 82.6368 132.423 80.7003 130.44Z" fill="#3551A0"></path> <path fill-rule="evenodd" clip-rule="evenodd" d="M83.666 133.333C83.666 130.572 85.9046 128.333 88.666 128.333H119.333C122.094 128.333 124.333 130.572 124.333 133.333C124.333 136.094 122.094 138.333 119.333 138.333H88.666C85.9046 138.333 83.666 136.094 83.666 133.333Z" fill="#3551A0"></path> </svg> 