<?xml version="1.0" encoding="UTF-8"?> <svg xmlns="http://www.w3.org/2000/svg" width="200" height="200" viewBox="0 0 200 200" fill="none"> <path d="M0 40C0 17.9086 17.9086 0 40 0H160C182.091 0 200 17.9086 200 40V160C200 182.091 182.091 200 160 200H40C17.9086 200 0 182.091 0 160V40Z" fill="#F6F6F6"></path> <path fill-rule="evenodd" clip-rule="evenodd" d="M160 4H40C20.1178 4 4 20.1177 4 40V160C4 179.882 20.1177 196 40 196H160C179.882 196 196 179.882 196 160V40C196 20.1178 179.882 4 160 4ZM40 0C17.9086 0 0 17.9086 0 40V160C0 182.091 17.9086 200 40 200H160C182.091 200 200 182.091 200 160V40C200 17.9086 182.091 0 160 0H40Z" fill="#EEEEEE"></path> <path fill-rule="evenodd" clip-rule="evenodd" d="M73.7031 36.3697C77.1412 32.9315 81.8044 31 86.6667 31C91.529 31 96.1921 32.9315 99.6303 36.3697C103.068 39.8079 105 44.471 105 49.3333V103.274C109.841 106.711 113.636 111.454 115.923 116.976C118.591 123.416 119.059 130.557 117.254 137.29C115.45 144.023 111.475 149.973 105.944 154.217C100.414 158.46 93.6376 160.761 86.6667 160.761C79.6958 160.761 72.9196 158.46 67.3892 154.217C61.8588 149.973 57.8832 144.023 56.079 137.29C54.2748 130.557 54.7428 123.416 57.4105 116.976C59.6977 111.454 63.4924 106.711 68.3333 103.274V49.3333C68.3333 44.471 70.2649 39.8079 73.7031 36.3697ZM86.6667 41C84.4565 41 82.3369 41.878 80.7741 43.4408C79.2113 45.0036 78.3333 47.1232 78.3333 49.3333V106C78.3333 107.786 77.3804 109.437 75.8333 110.33C71.7028 112.715 68.4745 116.396 66.6493 120.803C64.8241 125.209 64.5038 130.095 65.7383 134.702C66.9727 139.309 69.6929 143.38 73.4768 146.283C77.2608 149.187 81.8971 150.761 86.6667 150.761C91.4362 150.761 96.0725 149.187 99.8565 146.283C103.64 143.38 106.361 139.309 107.595 134.702C108.83 130.095 108.509 125.209 106.684 120.803C104.859 116.396 101.631 112.715 97.5 110.33C95.953 109.437 95 107.786 95 106V49.3333C95 47.1232 94.122 45.0036 92.5592 43.4408C90.9964 41.878 88.8768 41 86.6667 41Z" fill="#3551A0"></path> <path fill-rule="evenodd" clip-rule="evenodd" d="M68.334 76C68.334 73.2386 70.5726 71 73.334 71H100.001C102.762 71 105.001 73.2386 105.001 76C105.001 78.7614 102.762 81 100.001 81H73.334C70.5726 81 68.334 78.7614 68.334 76Z" fill="#3551A0"></path> <path fill-rule="evenodd" clip-rule="evenodd" d="M121.668 57.8184C121.668 55.0569 123.907 52.8184 126.668 52.8184H166.668C169.429 52.8184 171.668 55.0569 171.668 57.8184C171.668 60.5798 169.429 62.8184 166.668 62.8184H126.668C123.907 62.8184 121.668 60.5798 121.668 57.8184Z" fill="#3551A0"></path> <path fill-rule="evenodd" clip-rule="evenodd" d="M121.668 99.6367C121.668 96.8753 123.907 94.6367 126.668 94.6367H166.668C169.429 94.6367 171.668 96.8753 171.668 99.6367C171.668 102.398 169.429 104.637 166.668 104.637H126.668C123.907 104.637 121.668 102.398 121.668 99.6367Z" fill="#3551A0"></path> <path fill-rule="evenodd" clip-rule="evenodd" d="M146.668 32.8184C149.429 32.8184 151.668 35.0569 151.668 37.8184V77.8184C151.668 80.5798 149.429 82.8184 146.668 82.8184C143.907 82.8184 141.668 80.5798 141.668 77.8184V37.8184C141.668 35.0569 143.907 32.8184 146.668 32.8184Z" fill="#3551A0"></path> </svg> 