<?xml version="1.0" encoding="UTF-8"?> <svg xmlns="http://www.w3.org/2000/svg" width="200" height="200" viewBox="0 0 200 200" fill="none"> <path d="M0 40C0 17.9086 17.9086 0 40 0H160C182.091 0 200 17.9086 200 40V160C200 182.091 182.091 200 160 200H40C17.9086 200 0 182.091 0 160V40Z" fill="#F6F6F6"></path> <path fill-rule="evenodd" clip-rule="evenodd" d="M160 4H40C20.1178 4 4 20.1177 4 40V160C4 179.882 20.1177 196 40 196H160C179.882 196 196 179.882 196 160V40C196 20.1178 179.882 4 160 4ZM40 0C17.9086 0 0 17.9086 0 40V160C0 182.091 17.9086 200 40 200H160C182.091 200 200 182.091 200 160V40C200 17.9086 182.091 0 160 0H40Z" fill="#EEEEEE"></path> <path fill-rule="evenodd" clip-rule="evenodd" d="M55.6719 120C55.6719 117.239 57.9105 115 60.6719 115H139.339C142.1 115 144.339 117.239 144.339 120C144.339 122.761 142.1 125 139.339 125H60.6719C57.9105 125 55.6719 122.761 55.6719 120Z" fill="#3551A0"></path> <path fill-rule="evenodd" clip-rule="evenodd" d="M81.6726 40C81.6726 37.2386 83.9112 35 86.6726 35H113.339C116.101 35 118.339 37.2386 118.339 40V85.5639C124.85 88.4703 130.593 92.8895 135.08 98.474C140.318 104.993 143.637 112.843 144.663 121.143C145.689 129.443 144.383 137.865 140.891 145.464C137.399 153.063 131.859 159.539 124.892 164.165C124.072 164.71 123.11 165 122.126 165H77.8926C76.9093 165 75.9478 164.71 75.1285 164.166C68.1574 159.542 62.6131 153.066 59.1176 145.465C55.6222 137.865 54.3139 129.441 55.3397 121.138C56.3654 112.835 59.6846 104.983 64.9247 98.4617C69.4134 92.8756 75.1596 88.4557 81.6726 85.5498V40ZM91.6726 45V88.9333C91.6726 91.0521 90.3372 92.9408 88.3397 93.6472C82.2048 95.8168 76.7959 99.653 72.7199 104.726C68.6439 109.798 66.0621 115.906 65.2642 122.364C64.4663 128.822 65.484 135.375 68.2029 141.287C70.7178 146.755 74.5964 151.476 79.4556 155H120.562C125.417 151.475 129.292 146.755 131.805 141.288C134.521 135.377 135.537 128.826 134.738 122.37C133.94 115.914 131.359 109.808 127.285 104.737C123.21 99.6663 117.804 95.8305 111.671 93.6602C109.674 92.9535 108.339 91.065 108.339 88.9467V45H91.6726Z" fill="#3551A0"></path> <path fill-rule="evenodd" clip-rule="evenodd" d="M75.0059 40C75.0059 37.2386 77.2444 35 80.0059 35H120.006C122.767 35 125.006 37.2386 125.006 40C125.006 42.7614 122.767 45 120.006 45H80.0059C77.2444 45 75.0059 42.7614 75.0059 40Z" fill="#3551A0"></path> </svg> 