<?xml version="1.0" encoding="UTF-8"?> <svg xmlns="http://www.w3.org/2000/svg" width="200" height="200" viewBox="0 0 200 200" fill="none"> <path d="M0 40C0 17.9086 17.9086 0 40 0H160C182.091 0 200 17.9086 200 40V160C200 182.091 182.091 200 160 200H40C17.9086 200 0 182.091 0 160V40Z" fill="#F6F6F6"></path> <path fill-rule="evenodd" clip-rule="evenodd" d="M160 4H40C20.1178 4 4 20.1177 4 40V160C4 179.882 20.1177 196 40 196H160C179.882 196 196 179.882 196 160V40C196 20.1178 179.882 4 160 4ZM40 0C17.9086 0 0 17.9086 0 40V160C0 182.091 17.9086 200 40 200H160C182.091 200 200 182.091 200 160V40C200 17.9086 182.091 0 160 0H40Z" fill="#EEEEEE"></path> <path fill-rule="evenodd" clip-rule="evenodd" d="M79 154.666C79 151.905 81.2386 149.666 84 149.666H124C126.761 149.666 129 151.905 129 154.666C129 157.427 126.761 159.666 124 159.666H84C81.2386 159.666 79 157.427 79 154.666Z" fill="#3551A0"></path> <path fill-rule="evenodd" clip-rule="evenodd" d="M104 96.333C106.761 96.333 109 98.5716 109 101.333V154.666C109 157.428 106.761 159.666 104 159.666C101.239 159.666 99 157.428 99 154.666V101.333C99 98.5716 101.239 96.333 104 96.333Z" fill="#3551A0"></path> <path fill-rule="evenodd" clip-rule="evenodd" d="M79.5285 45.7639C80.3755 44.07 82.1068 43 84.0007 43H124.001C125.895 43 127.626 44.07 128.473 45.7639L155.139 99.0973C155.914 100.647 155.832 102.488 154.921 103.962C154.01 105.436 152.4 106.333 150.667 106.333H57.334C55.6011 106.333 53.9918 105.436 53.0807 103.962C52.1697 102.488 52.0869 100.647 52.8619 99.0973L79.5285 45.7639ZM87.0908 53L65.4242 96.3333H142.577L120.91 53H87.0908Z" fill="#3551A0"></path> </svg> 