<?xml version="1.0" encoding="UTF-8"?> <svg xmlns="http://www.w3.org/2000/svg" width="200" height="200" viewBox="0 0 200 200" fill="none"> <path d="M0 40C0 17.9086 17.9086 0 40 0H160C182.091 0 200 17.9086 200 40V160C200 182.091 182.091 200 160 200H40C17.9086 200 0 182.091 0 160V40Z" fill="#F6F6F6"></path> <path fill-rule="evenodd" clip-rule="evenodd" d="M160 4H40C20.1178 4 4 20.1177 4 40V160C4 179.882 20.1177 196 40 196H160C179.882 196 196 179.882 196 160V40C196 20.1178 179.882 4 160 4ZM40 0C17.9086 0 0 17.9086 0 40V160C0 182.091 17.9086 200 40 200H160C182.091 200 200 182.091 200 160V40C200 17.9086 182.091 0 160 0H40Z" fill="#EEEEEE"></path> <path fill-rule="evenodd" clip-rule="evenodd" d="M86.9235 43.9438C88.2274 44.8836 89 46.3928 89 48C89 51.9783 90.5803 55.7936 93.3934 58.6066C96.2064 61.4197 100.022 63 104 63C107.978 63 111.794 61.4197 114.607 58.6066C117.42 55.7936 119 51.9783 119 48C119 46.3928 119.773 44.8836 121.076 43.9438C122.38 43.0041 124.056 42.7484 125.581 43.2566L165.581 56.59C167.623 57.2705 169 59.1812 169 61.3334V94.6667C169 97.4281 166.761 99.6667 164 99.6667H149V148C149 151.094 147.771 154.062 145.583 156.25C143.395 158.438 140.428 159.667 137.333 159.667H70.6667C67.5725 159.667 64.605 158.438 62.4171 156.25C60.2292 154.062 59 151.094 59 148V99.6667H44C41.2386 99.6667 39 97.4281 39 94.6667V61.3334C39 59.1812 40.3772 57.2705 42.4189 56.59L82.4189 43.2566C83.9436 42.7484 85.6197 43.0041 86.9235 43.9438ZM49 64.9372V89.6667H64C66.7614 89.6667 69 91.9053 69 94.6667V148C69 148.442 69.1756 148.866 69.4882 149.179C69.8007 149.491 70.2246 149.667 70.6667 149.667H137.333C137.775 149.667 138.199 149.491 138.512 149.179C138.824 148.866 139 148.442 139 148V94.6667C139 91.9053 141.239 89.6667 144 89.6667H159V64.9372L128.103 54.6381C126.963 58.7762 124.766 62.5894 121.678 65.6777C116.989 70.3661 110.63 73 104 73C97.3696 73 91.0107 70.3661 86.3223 65.6777C83.234 62.5894 81.0371 58.7762 79.8973 54.6381L49 64.9372Z" fill="#3551A0"></path> </svg> 