<?xml version="1.0" encoding="UTF-8"?> <svg xmlns="http://www.w3.org/2000/svg" width="200" height="200" viewBox="0 0 200 200" fill="none"> <path d="M0 40C0 17.9086 17.9086 0 40 0H160C182.091 0 200 17.9086 200 40V160C200 182.091 182.091 200 160 200H40C17.9086 200 0 182.091 0 160V40Z" fill="#F6F6F6"></path> <path fill-rule="evenodd" clip-rule="evenodd" d="M160 4H40C20.1178 4 4 20.1177 4 40V160C4 179.882 20.1177 196 40 196H160C179.882 196 196 179.882 196 160V40C196 20.1178 179.882 4 160 4ZM40 0C17.9086 0 0 17.9086 0 40V160C0 182.091 17.9086 200 40 200H160C182.091 200 200 182.091 200 160V40C200 17.9086 182.091 0 160 0H40Z" fill="#EEEEEE"></path> <path fill-rule="evenodd" clip-rule="evenodd" d="M53.3333 102.333C51.1232 102.333 49.0036 103.211 47.4408 104.774C45.878 106.337 45 108.456 45 110.666V137.333C45 139.543 45.878 141.663 47.4408 143.226C49.0036 144.788 51.1232 145.666 53.3333 145.666H146.667C148.877 145.666 150.996 144.788 152.559 143.226C154.122 141.663 155 139.543 155 137.333V110.666C155 108.456 154.122 106.337 152.559 104.774C150.996 103.211 148.877 102.333 146.667 102.333C144.457 102.333 142.337 103.211 140.774 104.774C139.211 106.337 138.333 108.456 138.333 110.666V124C138.333 126.761 136.095 129 133.333 129H66.6667C63.9052 129 61.6667 126.761 61.6667 124V110.666C61.6667 108.456 60.7887 106.337 59.2259 104.774C57.6631 103.211 55.5435 102.333 53.3333 102.333ZM53.3333 92.333C58.1956 92.333 62.8588 94.2646 66.297 97.7027C69.7351 101.141 71.6667 105.804 71.6667 110.666V119H128.333V110.666C128.333 105.804 130.265 101.141 133.703 97.7027C137.141 94.2646 141.804 92.333 146.667 92.333C151.529 92.333 156.192 94.2646 159.63 97.7027C163.068 101.141 165 105.804 165 110.666V137.333C165 142.195 163.068 146.858 159.63 150.297C156.192 153.735 151.529 155.666 146.667 155.666H53.3333C48.471 155.666 43.8079 153.735 40.3697 150.297C36.9315 146.858 35 142.195 35 137.333V110.666C35 105.804 36.9315 101.141 40.3697 97.7027C43.8079 94.2646 48.471 92.333 53.3333 92.333Z" fill="#3551A0"></path> <path fill-rule="evenodd" clip-rule="evenodd" d="M73.334 49C69.3557 49 65.5404 50.5804 62.7274 53.3934C59.9143 56.2064 58.334 60.0218 58.334 64V97.3333C58.334 100.095 56.0954 102.333 53.334 102.333C50.5726 102.333 48.334 100.095 48.334 97.3333V64C48.334 57.3696 50.9679 51.0107 55.6563 46.3223C60.3447 41.6339 66.7036 39 73.334 39H126.667C133.298 39 139.657 41.6339 144.345 46.3223C149.033 51.0107 151.667 57.3696 151.667 64V97.3333C151.667 100.095 149.429 102.333 146.667 102.333C143.906 102.333 141.667 100.095 141.667 97.3333V64C141.667 60.0218 140.087 56.2064 137.274 53.3934C134.461 50.5804 130.646 49 126.667 49H73.334Z" fill="#3551A0"></path> <path fill-rule="evenodd" clip-rule="evenodd" d="M60 145.667C62.7614 145.667 65 147.906 65 150.667V164C65 166.762 62.7614 169 60 169C57.2386 169 55 166.762 55 164V150.667C55 147.906 57.2386 145.667 60 145.667Z" fill="#3551A0"></path> <path fill-rule="evenodd" clip-rule="evenodd" d="M140 145.667C142.761 145.667 145 147.906 145 150.667V164C145 166.762 142.761 169 140 169C137.239 169 135 166.762 135 164V150.667C135 147.906 137.239 145.667 140 145.667Z" fill="#3551A0"></path> </svg> 