<?xml version="1.0" encoding="UTF-8"?> <svg xmlns="http://www.w3.org/2000/svg" width="129" height="151" viewBox="0 0 129 151" fill="none"> <path fill-rule="evenodd" clip-rule="evenodd" d="M86.5485 0C89.5996 0 92.0729 2.47335 92.0729 5.52438V34.9878C92.0729 35.4762 92.2669 35.9445 92.6123 36.2899C92.9576 36.6352 93.426 36.8292 93.9144 36.8292H123.378C126.429 36.8292 128.902 39.3026 128.902 42.3536C128.902 45.4046 126.429 47.878 123.378 47.878H93.9144C90.4957 47.878 87.217 46.5199 84.7996 44.1025C82.3822 41.6852 81.0241 38.4065 81.0241 34.9878V5.52438C81.0241 2.47335 83.4975 0 86.5485 0Z" fill="#D60029"></path> <path fill-rule="evenodd" clip-rule="evenodd" d="M34.9876 11.0488C32.5457 11.0488 30.2038 12.0188 28.4771 13.7455C26.7503 15.4722 25.7803 17.8141 25.7803 20.2561V42.3536C25.7803 45.4046 23.3069 47.878 20.2559 47.878C17.2049 47.878 14.7315 45.4046 14.7315 42.3536V20.2561C14.7315 14.8838 16.8656 9.73162 20.6644 5.93287C24.4631 2.13411 29.6154 0 34.9876 0H86.5485C88.0137 0 89.4188 0.582032 90.4549 1.61805L127.284 38.4473C128.32 39.4833 128.902 40.8885 128.902 42.3536V123.378C128.902 128.75 126.768 133.902 122.969 137.701C119.171 141.5 114.018 143.634 108.646 143.634H71.8168C68.7658 143.634 66.2925 141.161 66.2925 138.11C66.2925 135.059 68.7658 132.585 71.8168 132.585H108.646C111.088 132.585 113.43 131.615 115.157 129.888C116.883 128.162 117.853 125.82 117.853 123.378V44.6419L84.2602 11.0488H34.9876Z" fill="#D60029"></path> <path fill-rule="evenodd" clip-rule="evenodd" d="M27.6219 69.9756C18.4688 69.9756 11.0488 77.3957 11.0488 86.5488C11.0488 95.7019 18.4688 103.122 27.6219 103.122C36.775 103.122 44.1951 95.7019 44.1951 86.5488C44.1951 77.3957 36.775 69.9756 27.6219 69.9756ZM0 86.5488C0 71.2936 12.3668 58.9268 27.6219 58.9268C42.8771 58.9268 55.2438 71.2936 55.2438 86.5488C55.2438 101.804 42.8771 114.171 27.6219 114.171C12.3668 114.171 0 101.804 0 86.5488Z" fill="#D60029"></path> <path fill-rule="evenodd" clip-rule="evenodd" d="M18.1608 103.355C21.0832 104.232 22.7415 107.311 21.8648 110.234L14.49 134.816L25.1516 129.486C26.7068 128.708 28.5375 128.708 30.0927 129.486L40.7543 134.816L33.3795 110.234C32.5028 107.311 34.1611 104.232 37.0835 103.355C40.0059 102.478 43.0856 104.137 43.9623 107.059L55.0111 143.888C55.6444 145.999 54.9623 148.285 53.2757 149.703C51.589 151.122 49.2204 151.402 47.2491 150.417L27.6222 140.603L7.9952 150.417C6.0239 151.402 3.65535 151.122 1.96866 149.703C0.281974 148.285 -0.400089 145.999 0.23322 143.888L11.282 107.059C12.1587 104.137 15.2384 102.478 18.1608 103.355Z" fill="#D60029"></path> </svg> 