<?xml version="1.0" encoding="UTF-8"?> <svg xmlns="http://www.w3.org/2000/svg" width="44" height="44" viewBox="0 0 44 44" fill="none"> <path fill-rule="evenodd" clip-rule="evenodd" d="M22 7.375C19.1098 7.375 16.3379 8.52315 14.2942 10.5669C12.2504 12.6106 11.1023 15.3825 11.1023 18.2727C11.1023 22.4928 13.8484 26.5894 16.8618 29.7703C18.3405 31.331 19.8238 32.6088 20.9389 33.4968C21.3507 33.8247 21.7108 34.0983 22 34.3121C22.2892 34.0983 22.6493 33.8247 23.0611 33.4968C24.1763 32.6088 25.6596 31.331 27.1382 29.7703C30.1517 26.5894 32.8977 22.4928 32.8977 18.2727C32.8977 15.3825 31.7496 12.6106 29.7059 10.5669C27.6622 8.52315 24.8903 7.375 22 7.375ZM22 36C21.2373 37.1441 21.237 37.1438 21.2366 37.1436L21.2327 37.141L21.2235 37.1348L21.1923 37.1137C21.1657 37.0956 21.1278 37.0697 21.0793 37.0361C20.9824 36.969 20.8432 36.8712 20.6676 36.7445C20.3167 36.491 19.82 36.1211 19.2259 35.6481C18.0399 34.7037 16.455 33.3394 14.8655 31.6616C11.7426 28.3652 8.35229 23.5981 8.35229 18.2727C8.35229 14.6531 9.79018 11.1818 12.3496 8.62233C14.9091 6.06288 18.3804 4.625 22 4.625C25.6196 4.625 29.091 6.06288 31.6504 8.62233C34.2099 11.1818 35.6477 14.6531 35.6477 18.2727C35.6477 23.5981 32.2575 28.3652 29.1346 31.6616C27.545 33.3394 25.9601 34.7037 24.7742 35.6481C24.1801 36.1211 23.6833 36.491 23.3324 36.7445C23.1569 36.8712 23.0176 36.969 22.9207 37.0361C22.8723 37.0697 22.8344 37.0956 22.8078 37.1137L22.7765 37.1348L22.7674 37.141L22.7635 37.1436C22.7631 37.1438 22.7627 37.1441 22 36ZM22 36L22.7635 37.1436C22.3016 37.4515 21.6984 37.4515 21.2366 37.1436L22 36Z" fill="#D60029"></path> <path fill-rule="evenodd" clip-rule="evenodd" d="M22.0001 15.5568C20.5001 15.5568 19.2842 16.7727 19.2842 18.2727C19.2842 19.7726 20.5001 20.9886 22.0001 20.9886C23.5 20.9886 24.716 19.7726 24.716 18.2727C24.716 16.7727 23.5 15.5568 22.0001 15.5568ZM16.5342 18.2727C16.5342 15.2539 18.9814 12.8068 22.0001 12.8068C25.0188 12.8068 27.466 15.2539 27.466 18.2727C27.466 21.2914 25.0188 23.7386 22.0001 23.7386C18.9814 23.7386 16.5342 21.2914 16.5342 18.2727Z" fill="#D60029"></path> </svg> 