<?xml version="1.0" encoding="UTF-8"?> <svg xmlns="http://www.w3.org/2000/svg" width="40" height="40" viewBox="0 0 40 40" fill="none"> <path fill-rule="evenodd" clip-rule="evenodd" d="M10.0001 8.04167C9.4807 8.04167 8.98259 8.248 8.61533 8.61525C8.24807 8.98251 8.04175 9.48062 8.04175 10V33.3333C8.04175 33.8527 8.24807 34.3508 8.61533 34.7181C8.98259 35.0853 9.4807 35.2917 10.0001 35.2917H30.0001C30.5195 35.2917 31.0176 35.0853 31.3848 34.7181C31.7521 34.3508 31.9584 33.8527 31.9584 33.3333V10C31.9584 9.48062 31.7521 8.98251 31.3848 8.61525C31.0176 8.248 30.5195 8.04167 30.0001 8.04167H26.6667C25.9074 8.04167 25.2917 7.42606 25.2917 6.66667C25.2917 5.90728 25.9074 5.29167 26.6667 5.29167H30.0001C31.2488 5.29167 32.4464 5.78773 33.3294 6.67071C34.2124 7.55369 34.7084 8.75128 34.7084 10V33.3333C34.7084 34.5821 34.2124 35.7796 33.3294 36.6626C32.4464 37.5456 31.2488 38.0417 30.0001 38.0417H10.0001C8.75135 38.0417 7.55377 37.5456 6.67079 36.6626C5.7878 35.7796 5.29175 34.5821 5.29175 33.3333V10C5.29175 8.75128 5.7878 7.55369 6.67079 6.67071C7.55377 5.78773 8.75135 5.29167 10.0001 5.29167H13.3334C14.0928 5.29167 14.7084 5.90728 14.7084 6.66667C14.7084 7.42606 14.0928 8.04167 13.3334 8.04167H10.0001Z" fill="#D60029"></path> <path fill-rule="evenodd" clip-rule="evenodd" d="M15 4.70833C14.839 4.70833 14.7084 4.83891 14.7084 4.99999V8.33333C14.7084 8.49441 14.839 8.625 15 8.625H25C25.1611 8.625 25.2917 8.49441 25.2917 8.33333V4.99999C25.2917 4.83891 25.1611 4.70833 25 4.70833H15ZM11.9584 4.99999C11.9584 3.32013 13.3202 1.95833 15 1.95833H25C26.6799 1.95833 28.0417 3.32013 28.0417 4.99999V8.33333C28.0417 10.0132 26.6799 11.375 25 11.375H15C13.3202 11.375 11.9584 10.0132 11.9584 8.33333V4.99999Z" fill="#D60029"></path> </svg> 