<?xml version="1.0" encoding="UTF-8"?> <svg xmlns="http://www.w3.org/2000/svg" width="200" height="200" viewBox="0 0 200 200" fill="none"> <path d="M0 40C0 17.9086 17.9086 0 40 0H160C182.091 0 200 17.9086 200 40V160C200 182.091 182.091 200 160 200H40C17.9086 200 0 182.091 0 160V40Z" fill="#F6F6F6"></path> <path fill-rule="evenodd" clip-rule="evenodd" d="M160 4H40C20.1178 4 4 20.1177 4 40V160C4 179.882 20.1177 196 40 196H160C179.882 196 196 179.882 196 160V40C196 20.1178 179.882 4 160 4ZM40 0C17.9086 0 0 17.9086 0 40V160C0 182.091 17.9086 200 40 200H160C182.091 200 200 182.091 200 160V40C200 17.9086 182.091 0 160 0H40Z" fill="#EEEEEE"></path> <path fill-rule="evenodd" clip-rule="evenodd" d="M60.0007 55.667C59.5586 55.667 59.1347 55.8426 58.8221 56.1551C58.5096 56.4677 58.334 56.8916 58.334 57.3337V150.667C58.334 151.109 58.5096 151.533 58.8221 151.846C59.1347 152.158 59.5586 152.334 60.0007 152.334H75.0007V55.667H60.0007ZM85.0007 55.667V152.334H133.334C135.544 152.334 137.664 151.456 139.227 149.893C140.789 148.33 141.667 146.21 141.667 144V64.0003C141.667 61.7902 140.789 59.6706 139.227 58.1078C137.664 56.545 135.544 55.667 133.334 55.667H85.0007ZM85.0007 162.334H133.334C138.196 162.334 142.859 160.402 146.298 156.964C149.736 153.526 151.667 148.863 151.667 144V64.0003C151.667 59.138 149.736 54.4749 146.298 51.0367C142.859 47.5985 138.196 45.667 133.334 45.667H60.0007C56.9065 45.667 53.939 46.8962 51.7511 49.0841C49.5632 51.272 48.334 54.2395 48.334 57.3337V150.667C48.334 153.761 49.5631 156.729 51.7511 158.917C53.939 161.105 56.9065 162.334 60.0007 162.334H75.0007V170.667C75.0007 173.428 77.2392 175.667 80.0007 175.667C82.7621 175.667 85.0007 173.428 85.0007 170.667V162.334Z" fill="#3551A0"></path> <path fill-rule="evenodd" clip-rule="evenodd" d="M101.666 77.333C101.666 74.5716 103.905 72.333 106.666 72.333H119.999C122.761 72.333 124.999 74.5716 124.999 77.333C124.999 80.0944 122.761 82.333 119.999 82.333H106.666C103.905 82.333 101.666 80.0944 101.666 77.333Z" fill="#3551A0"></path> <path fill-rule="evenodd" clip-rule="evenodd" d="M101.666 104C101.666 101.239 103.905 99 106.666 99H119.999C122.761 99 124.999 101.239 124.999 104C124.999 106.761 122.761 109 119.999 109H106.666C103.905 109 101.666 106.761 101.666 104Z" fill="#3551A0"></path> </svg> 