<?xml version="1.0" encoding="UTF-8"?> <svg xmlns="http://www.w3.org/2000/svg" width="200" height="200" viewBox="0 0 200 200" fill="none"> <path d="M0 40C0 17.9086 17.9086 0 40 0H160C182.091 0 200 17.9086 200 40V160C200 182.091 182.091 200 160 200H40C17.9086 200 0 182.091 0 160V40Z" fill="#F6F6F6"></path> <path fill-rule="evenodd" clip-rule="evenodd" d="M160 4H40C20.1178 4 4 20.1177 4 40V160C4 179.882 20.1177 196 40 196H160C179.882 196 196 179.882 196 160V40C196 20.1178 179.882 4 160 4ZM40 0C17.9086 0 0 17.9086 0 40V160C0 182.091 17.9086 200 40 200H160C182.091 200 200 182.091 200 160V40C200 17.9086 182.091 0 160 0H40Z" fill="#EEEEEE"></path> <path fill-rule="evenodd" clip-rule="evenodd" d="M46.6667 62.333C46.2246 62.333 45.8007 62.5086 45.4882 62.8212C45.1756 63.1337 45 63.5576 45 63.9997V117.333C45 117.775 45.1756 118.199 45.4882 118.512C45.8007 118.824 46.2246 119 46.6667 119H86.6667C89.4281 119 91.6667 121.238 91.6667 124C91.6667 126.761 89.4281 129 86.6667 129H46.6667C43.5725 129 40.605 127.771 38.4171 125.583C36.2292 123.395 35 120.427 35 117.333V63.9997C35 60.9055 36.2292 57.938 38.4171 55.7501C40.605 53.5622 43.5725 52.333 46.6667 52.333H86.6667C89.4281 52.333 91.6667 54.5716 91.6667 57.333C91.6667 60.0944 89.4281 62.333 86.6667 62.333H46.6667Z" fill="#3551A0"></path> <path fill-rule="evenodd" clip-rule="evenodd" d="M113.333 55.667C112.412 55.667 111.666 56.4132 111.666 57.3337V150.667C111.666 151.587 112.412 152.334 113.333 152.334H153.333C154.253 152.334 154.999 151.587 154.999 150.667V57.3337C154.999 56.4132 154.253 55.667 153.333 55.667H113.333ZM101.666 57.3337C101.666 50.8903 106.889 45.667 113.333 45.667H153.333C159.776 45.667 164.999 50.8903 164.999 57.3337V150.667C164.999 157.11 159.776 162.334 153.333 162.334H113.333C106.889 162.334 101.666 157.11 101.666 150.667V57.3337Z" fill="#3551A0"></path> <path fill-rule="evenodd" clip-rule="evenodd" d="M61.666 150.667C61.666 147.906 63.9046 145.667 66.666 145.667H86.666C89.4274 145.667 91.666 147.906 91.666 150.667C91.666 153.428 89.4274 155.667 86.666 155.667H66.666C63.9046 155.667 61.666 153.428 61.666 150.667Z" fill="#3551A0"></path> <path fill-rule="evenodd" clip-rule="evenodd" d="M133.334 72.333C136.095 72.333 138.334 74.5716 138.334 77.333V77.3997C138.334 80.1611 136.095 82.3997 133.334 82.3997C130.573 82.3997 128.334 80.1611 128.334 77.3997V77.333C128.334 74.5716 130.573 72.333 133.334 72.333Z" fill="#3551A0"></path> <path fill-rule="evenodd" clip-rule="evenodd" d="M133.333 129C132.412 129 131.666 129.746 131.666 130.667C131.666 131.587 132.412 132.333 133.333 132.333C134.253 132.333 134.999 131.587 134.999 130.667C134.999 129.746 134.253 129 133.333 129ZM121.666 130.667C121.666 124.223 126.889 119 133.333 119C139.776 119 144.999 124.223 144.999 130.667C144.999 137.11 139.776 142.333 133.333 142.333C126.889 142.333 121.666 137.11 121.666 130.667Z" fill="#3551A0"></path> <path fill-rule="evenodd" clip-rule="evenodd" d="M80 119C82.7614 119 85 121.239 85 124V150.667C85 153.428 82.7614 155.667 80 155.667C77.2386 155.667 75 153.428 75 150.667V124C75 121.239 77.2386 119 80 119Z" fill="#3551A0"></path> </svg> 