<?xml version="1.0" encoding="UTF-8"?> <svg xmlns="http://www.w3.org/2000/svg" width="200" height="200" viewBox="0 0 200 200" fill="none"> <path d="M0 40C0 17.9086 17.9086 0 40 0H160C182.091 0 200 17.9086 200 40V160C200 182.091 182.091 200 160 200H40C17.9086 200 0 182.091 0 160V40Z" fill="#F6F6F6"></path> <path fill-rule="evenodd" clip-rule="evenodd" d="M160 4H40C20.1178 4 4 20.1177 4 40V160C4 179.882 20.1177 196 40 196H160C179.882 196 196 179.882 196 160V40C196 20.1178 179.882 4 160 4ZM40 0C17.9086 0 0 17.9086 0 40V160C0 182.091 17.9086 200 40 200H160C182.091 200 200 182.091 200 160V40C200 17.9086 182.091 0 160 0H40Z" fill="#EEEEEE"></path> <path fill-rule="evenodd" clip-rule="evenodd" d="M120 88.333C122.761 88.333 125 90.5716 125 93.333V93.3997C125 96.1611 122.761 98.3997 120 98.3997C117.239 98.3997 115 96.1611 115 93.3997V93.333C115 90.5716 117.239 88.333 120 88.333Z" fill="#3551A0"></path> <path fill-rule="evenodd" clip-rule="evenodd" d="M123.887 35.8397C124.708 35.2922 125.673 35 126.661 35H126.667C129.429 35 131.667 37.2386 131.667 40V62.5804C138.725 67.3032 144.305 73.9216 147.768 81.6667H153.327C156.421 81.6667 159.389 82.8958 161.577 85.0838C163.765 87.2717 164.994 90.2391 164.994 93.3333V106.667C164.994 109.761 163.765 112.728 161.577 114.916C159.389 117.104 156.421 118.333 153.327 118.333H147.763C145.491 123.423 142.293 128.05 138.327 131.978V143.333C138.327 147.312 136.747 151.127 133.934 153.94C131.121 156.753 127.306 158.333 123.327 158.333C119.349 158.333 115.534 156.753 112.721 153.94C110.295 151.515 108.786 148.344 108.416 144.966C107.832 144.989 107.246 145 106.661 145M121.667 49.3381V65.3533C121.667 67.1379 122.618 68.7873 124.163 69.6811C131.386 73.8603 136.885 80.4744 139.675 88.3386C140.383 90.3336 142.27 91.6667 144.387 91.6667H153.327C153.769 91.6667 154.193 91.8423 154.506 92.1548C154.818 92.4674 154.994 92.8913 154.994 93.3333V106.667C154.994 107.109 154.818 107.533 154.506 107.845C154.193 108.158 153.769 108.333 153.327 108.333H144.381C142.262 108.333 140.374 109.668 139.667 111.665C137.704 117.21 134.378 122.172 129.994 126.093C128.933 127.042 128.327 128.397 128.327 129.82V143.333C128.327 144.659 127.8 145.931 126.863 146.869C125.925 147.807 124.653 148.333 123.327 148.333C122.001 148.333 120.729 147.807 119.792 146.869C118.854 145.931 118.327 144.659 118.327 143.333V139.447C118.327 137.976 117.68 136.58 116.558 135.63C115.435 134.68 113.951 134.272 112.501 134.515C110.572 134.839 108.619 135.001 106.662 135H79.9939C78.0376 135.001 76.0828 134.839 74.1533 134.515C72.703 134.272 71.2194 134.68 70.097 135.63C68.9746 136.58 68.3273 137.976 68.3273 139.447V143.333C68.3273 144.659 67.8005 145.931 66.8628 146.869C65.9251 147.807 64.6533 148.333 63.3273 148.333C62.0012 148.333 60.7294 147.807 59.7917 146.869C58.854 145.931 58.3273 144.659 58.3273 143.333V130.093L58.3305 130.005C58.3856 128.518 57.7756 127.084 56.6665 126.092C51.3816 121.368 47.6561 115.149 45.9829 108.261C44.3098 101.372 44.768 94.1375 47.2967 87.5149C49.8255 80.8922 54.3057 75.1936 60.1444 71.1732C65.9831 67.1527 72.9049 65 79.994 65H96.6606C97.6477 65 98.6128 64.7078 99.4341 64.1603L121.667 49.3381ZM123.887 35.8397L95.1467 55L123.887 35.8397ZM95.1467 55H79.9939C70.8795 55.0001 61.9799 57.7678 54.473 62.9369C46.9662 68.106 41.2059 75.4329 37.9546 83.9477C34.7033 92.4625 34.1143 101.764 36.2655 110.621C38.2354 118.732 42.4183 126.12 48.3273 131.972V143.333C48.3273 147.312 49.9076 151.127 52.7207 153.94C55.5337 156.753 59.349 158.333 63.3273 158.333C67.3055 158.333 71.1208 156.753 73.9339 153.94C76.3593 151.515 77.8683 148.344 78.2381 144.966C78.8229 144.989 79.4083 145 79.9939 145C79.9933 145 79.9945 145 79.9939 145H106.661" fill="#3551A0"></path> </svg> 