<?xml version="1.0" encoding="UTF-8"?> <svg xmlns="http://www.w3.org/2000/svg" width="200" height="200" viewBox="0 0 200 200" fill="none"> <path d="M0 40C0 17.9086 17.9086 0 40 0H160C182.091 0 200 17.9086 200 40V160C200 182.091 182.091 200 160 200H40C17.9086 200 0 182.091 0 160V40Z" fill="#F6F6F6"></path> <path fill-rule="evenodd" clip-rule="evenodd" d="M160 4H40C20.1178 4 4 20.1177 4 40V160C4 179.882 20.1177 196 40 196H160C179.882 196 196 179.882 196 160V40C196 20.1178 179.882 4 160 4ZM40 0C17.9086 0 0 17.9086 0 40V160C0 182.091 17.9086 200 40 200H160C182.091 200 200 182.091 200 160V40C200 17.9086 182.091 0 160 0H40Z" fill="#EEEEEE"></path> <path fill-rule="evenodd" clip-rule="evenodd" d="M47.0357 43.0367C50.4739 39.5985 55.137 37.667 59.9993 37.667H126.666C129.76 37.667 132.728 38.8962 134.916 41.0841C137.104 43.272 138.333 46.2395 138.333 49.3337V64.3337H139.999C143.094 64.3337 146.061 65.5628 148.249 67.7507C150.437 69.9387 151.666 72.9061 151.666 76.0003V96.0003C151.666 98.7617 149.427 101 146.666 101C143.905 101 141.666 98.7617 141.666 96.0003V76.0003C141.666 75.5583 141.49 75.1344 141.178 74.8218C140.865 74.5093 140.441 74.3337 139.999 74.3337H59.9993C57.0752 74.3337 54.223 73.6351 51.666 72.3303V136C51.666 138.21 52.544 140.33 54.1068 141.893C55.6696 143.456 57.7892 144.334 59.9993 144.334H139.999C140.441 144.334 140.865 144.158 141.178 143.846C141.49 143.533 141.666 143.109 141.666 142.667V122.667C141.666 119.906 143.905 117.667 146.666 117.667C149.427 117.667 151.666 119.906 151.666 122.667V142.667C151.666 145.761 150.437 148.729 148.249 150.917C146.061 153.105 143.094 154.334 139.999 154.334H59.9993C55.137 154.334 50.4739 152.402 47.0357 148.964C43.5976 145.526 41.666 140.863 41.666 136V56.0003C41.666 51.138 43.5976 46.4749 47.0357 43.0367ZM51.666 56.0003C51.666 58.2105 52.544 60.3301 54.1068 61.8929C55.6696 63.4557 57.7892 64.3337 59.9993 64.3337H128.333V49.3337C128.333 48.8916 128.157 48.4677 127.845 48.1551C127.532 47.8426 127.108 47.667 126.666 47.667H59.9993C57.7892 47.667 55.6696 48.545 54.1068 50.1078C52.544 51.6706 51.666 53.7902 51.666 56.0003Z" fill="#3551A0"></path> <path fill-rule="evenodd" clip-rule="evenodd" d="M126.667 101C124.457 101 122.338 101.878 120.775 103.441C119.212 105.004 118.334 107.123 118.334 109.333C118.334 111.543 119.212 113.663 120.775 115.226C122.338 116.789 124.457 117.667 126.667 117.667H148.334V101H126.667ZM113.704 96.3697C117.142 92.9315 121.805 91 126.667 91H153.334C156.095 91 158.334 93.2386 158.334 96V122.667C158.334 125.428 156.095 127.667 153.334 127.667H126.667C121.805 127.667 117.142 125.735 113.704 122.297C110.266 118.859 108.334 114.196 108.334 109.333C108.334 104.471 110.266 99.8079 113.704 96.3697Z" fill="#3551A0"></path> </svg> 