<?xml version="1.0" encoding="UTF-8"?> <svg xmlns="http://www.w3.org/2000/svg" width="200" height="200" viewBox="0 0 200 200" fill="none"> <path d="M0 40C0 17.9086 17.9086 0 40 0H160C182.091 0 200 17.9086 200 40V160C200 182.091 182.091 200 160 200H40C17.9086 200 0 182.091 0 160V40Z" fill="#F6F6F6"></path> <path fill-rule="evenodd" clip-rule="evenodd" d="M160 4H40C20.1178 4 4 20.1177 4 40V160C4 179.882 20.1177 196 40 196H160C179.882 196 196 179.882 196 160V40C196 20.1178 179.882 4 160 4ZM40 0C17.9086 0 0 17.9086 0 40V160C0 182.091 17.9086 200 40 200H160C182.091 200 200 182.091 200 160V40C200 17.9086 182.091 0 160 0H40Z" fill="#EEEEEE"></path> <path fill-rule="evenodd" clip-rule="evenodd" d="M100 75C102.761 75 105 77.2386 105 80V93.3333C105 96.0948 102.761 98.3333 100 98.3333C97.2386 98.3333 95 96.0948 95 93.3333V80C95 77.2386 97.2386 75 100 75ZM100 115C102.761 115 105 117.239 105 120V120.067C105 122.828 102.761 125.067 100 125.067C97.2386 125.067 95 122.828 95 120.067V120C95 117.239 97.2386 115 100 115Z" fill="#3551A0"></path> <path fill-rule="evenodd" clip-rule="evenodd" d="M90.6222 37.3285C93.4433 35.6653 96.6584 34.7881 99.9333 34.7881C103.208 34.7881 106.423 35.6653 109.244 37.3285C112.05 38.9827 114.364 41.3542 115.949 44.1989L163.259 125.826C163.377 126.029 163.48 126.24 163.568 126.458C164.69 129.231 165.116 132.236 164.81 135.212C164.504 138.187 163.474 141.042 161.81 143.529C160.147 146.015 157.9 148.056 155.267 149.474C152.633 150.893 149.693 151.645 146.702 151.666L146.667 151.667V151.666H53.3333C53.2107 151.666 53.0891 151.662 52.9687 151.653C52.7629 151.668 52.5539 151.671 52.3425 151.66C49.422 151.509 46.5798 150.662 44.0534 149.189C41.5269 147.717 39.3894 145.661 37.8193 143.194C36.2493 140.726 35.2922 137.919 35.0281 135.007C34.7639 132.094 35.2003 129.161 36.3009 126.451C36.3884 126.236 36.4908 126.027 36.6074 125.826L83.9178 44.1988C85.5026 41.3541 87.8166 38.9827 90.6222 37.3285ZM52.9653 141.68C53.0868 141.671 53.2095 141.666 53.3333 141.666H146.647C148.001 141.654 149.332 141.313 150.525 140.67C151.722 140.025 152.743 139.098 153.499 137.968C154.255 136.838 154.723 135.54 154.863 134.187C154.991 132.938 154.836 131.678 154.41 130.499L107.274 49.1737L107.225 49.0871C106.504 47.7846 105.448 46.6989 104.166 45.9428C102.883 45.1868 101.422 44.7881 99.9333 44.7881C98.4447 44.7881 96.9833 45.1868 95.701 45.9428C94.4187 46.6989 93.3623 47.7846 92.6416 49.0871L92.5926 49.1737L45.4549 130.503C45.0367 131.653 44.8764 132.882 44.9872 134.104C45.1073 135.427 45.5423 136.703 46.2559 137.825C46.9696 138.946 47.9412 139.881 49.0896 140.55C50.238 141.22 51.5299 141.605 52.8574 141.673C52.8935 141.675 52.9294 141.677 52.9653 141.68Z" fill="#3551A0"></path> </svg> 