<?xml version="1.0" encoding="UTF-8"?> <svg xmlns="http://www.w3.org/2000/svg" width="50" height="50" viewBox="0 0 50 50" fill="none"> <rect x="0.5" y="0.5" width="49" height="49" rx="9.5" fill="#F6F6F6" stroke="#EEEEEE"></rect> <path d="M13 19.6422C13 19.1212 13.2033 18.6208 13.5666 18.2475L18.0833 13.6053C18.4599 13.2183 18.9768 13 19.5168 13H24.5H29.4832C30.0232 13 30.5401 13.2183 30.9167 13.6053L35.4334 18.2475C35.7967 18.6208 36 19.1212 36 19.6422V25.1529V35C36 36.1046 35.1046 37 34 37H15C13.8954 37 13 36.1046 13 35V25.1529V19.6422Z" stroke="#3551A0" stroke-width="2"></path> <path d="M13 19H36" stroke="#3551A0" stroke-width="2"></path> <rect x="21" y="24" width="7" height="7" rx="3.5" stroke="#3551A0" stroke-width="2"></rect> </svg> 