<?xml version="1.0" encoding="UTF-8"?> <svg xmlns="http://www.w3.org/2000/svg" width="200" height="200" viewBox="0 0 200 200" fill="none"> <path d="M0 40C0 17.9086 17.9086 0 40 0H160C182.091 0 200 17.9086 200 40V160C200 182.091 182.091 200 160 200H40C17.9086 200 0 182.091 0 160V40Z" fill="#F6F6F6"></path> <path fill-rule="evenodd" clip-rule="evenodd" d="M160 4H40C20.1178 4 4 20.1177 4 40V160C4 179.882 20.1177 196 40 196H160C179.882 196 196 179.882 196 160V40C196 20.1178 179.882 4 160 4ZM40 0C17.9086 0 0 17.9086 0 40V160C0 182.091 17.9086 200 40 200H160C182.091 200 200 182.091 200 160V40C200 17.9086 182.091 0 160 0H40Z" fill="#EEEEEE"></path> <path fill-rule="evenodd" clip-rule="evenodd" d="M61.666 62.667C61.666 59.9056 63.9046 57.667 66.666 57.667H133.333C136.094 57.667 138.333 59.9056 138.333 62.667V102.667C138.333 109.297 135.699 115.656 131.01 120.345C126.322 125.033 119.963 127.667 113.333 127.667H86.666C80.0356 127.667 73.6768 125.033 68.9883 120.345C64.2999 115.656 61.666 109.297 61.666 102.667V62.667ZM71.666 67.667V102.667C71.666 106.645 73.2464 110.461 76.0594 113.274C78.8725 116.087 82.6878 117.667 86.666 117.667H113.333C117.311 117.667 121.126 116.087 123.939 113.274C126.752 110.461 128.333 106.645 128.333 102.667V67.667H71.666Z" fill="#3551A0"></path> <path fill-rule="evenodd" clip-rule="evenodd" d="M80 31C82.7614 31 85 33.2386 85 36V62.6667C85 65.4281 82.7614 67.6667 80 67.6667C77.2386 67.6667 75 65.4281 75 62.6667V36C75 33.2386 77.2386 31 80 31Z" fill="#3551A0"></path> <path fill-rule="evenodd" clip-rule="evenodd" d="M120 31C122.761 31 125 33.2386 125 36V62.6667C125 65.4281 122.761 67.6667 120 67.6667C117.239 67.6667 115 65.4281 115 62.6667V36C115 33.2386 117.239 31 120 31Z" fill="#3551A0"></path> <path fill-rule="evenodd" clip-rule="evenodd" d="M100 117.667C102.761 117.667 105 119.906 105 122.667V136C105 138.21 105.878 140.33 107.441 141.893C109.004 143.456 111.123 144.334 113.333 144.334H133.333C136.095 144.334 138.333 146.572 138.333 149.334C138.333 152.095 136.095 154.334 133.333 154.334H113.333C108.471 154.334 103.808 152.402 100.37 148.964C96.9315 145.526 95 140.863 95 136V122.667C95 119.906 97.2386 117.667 100 117.667Z" fill="#3551A0"></path> </svg> 