<?xml version="1.0" encoding="UTF-8"?> <svg xmlns="http://www.w3.org/2000/svg" width="200" height="200" viewBox="0 0 200 200" fill="none"> <path d="M0 40C0 17.9086 17.9086 0 40 0H160C182.091 0 200 17.9086 200 40V160C200 182.091 182.091 200 160 200H40C17.9086 200 0 182.091 0 160V40Z" fill="#F6F6F6"></path> <path fill-rule="evenodd" clip-rule="evenodd" d="M160 4H40C20.1178 4 4 20.1177 4 40V160C4 179.882 20.1177 196 40 196H160C179.882 196 196 179.882 196 160V40C196 20.1178 179.882 4 160 4ZM40 0C17.9086 0 0 17.9086 0 40V160C0 182.091 17.9086 200 40 200H160C182.091 200 200 182.091 200 160V40C200 17.9086 182.091 0 160 0H40Z" fill="#EEEEEE"></path> <path fill-rule="evenodd" clip-rule="evenodd" d="M66.6673 45C62.0649 45 58.334 48.731 58.334 53.3333V66.6667C58.334 71.269 62.0649 75 66.6673 75H133.334C137.936 75 141.667 71.269 141.667 66.6667V53.3333C141.667 48.731 137.936 45 133.334 45H66.6673ZM48.334 53.3333C48.334 43.2081 56.5421 35 66.6673 35H133.334C143.459 35 151.667 43.2081 151.667 53.3333V66.6667C151.667 76.7919 143.459 85 133.334 85H66.6673C56.5421 85 48.334 76.7919 48.334 66.6667V53.3333Z" fill="#3551A0"></path> <path fill-rule="evenodd" clip-rule="evenodd" d="M141.667 60C141.667 57.2386 143.905 55 146.667 55H153.333C158.196 55 162.859 56.9315 166.297 60.3697C169.735 63.8079 171.667 68.471 171.667 73.3333C171.667 83.5 167.628 93.2502 160.439 100.439C153.25 107.628 143.5 111.667 133.333 111.667H105V120C105 122.761 102.761 125 100 125C97.2386 125 95 122.761 95 120V106.667C95 103.905 97.2386 101.667 100 101.667H133.333C140.848 101.667 148.054 98.6816 153.368 93.368C158.682 88.0545 161.667 80.8478 161.667 73.3333C161.667 71.1232 160.789 69.0036 159.226 67.4408C157.663 65.878 155.543 65 153.333 65H146.667C143.905 65 141.667 62.7614 141.667 60Z" fill="#3551A0"></path> <path fill-rule="evenodd" clip-rule="evenodd" d="M93.3327 125C92.4122 125 91.666 125.746 91.666 126.667V153.333C91.666 154.254 92.4122 155 93.3327 155H106.666C107.586 155 108.333 154.254 108.333 153.333V126.667C108.333 125.746 107.586 125 106.666 125H93.3327ZM81.666 126.667C81.666 120.223 86.8894 115 93.3327 115H106.666C113.109 115 118.333 120.223 118.333 126.667V153.333C118.333 159.777 113.109 165 106.666 165H93.3327C86.8894 165 81.666 159.777 81.666 153.333V126.667Z" fill="#3551A0"></path> </svg> 