<?xml version="1.0" encoding="UTF-8"?> <svg xmlns="http://www.w3.org/2000/svg" width="200" height="200" viewBox="0 0 200 200" fill="none"> <path d="M0 40C0 17.9086 17.9086 0 40 0H160C182.091 0 200 17.9086 200 40V160C200 182.091 182.091 200 160 200H40C17.9086 200 0 182.091 0 160V40Z" fill="#F6F6F6"></path> <path fill-rule="evenodd" clip-rule="evenodd" d="M160 4H40C20.1178 4 4 20.1177 4 40V160C4 179.882 20.1177 196 40 196H160C179.882 196 196 179.882 196 160V40C196 20.1178 179.882 4 160 4ZM40 0C17.9086 0 0 17.9086 0 40V160C0 182.091 17.9086 200 40 200H160C182.091 200 200 182.091 200 160V40C200 17.9086 182.091 0 160 0H40Z" fill="#EEEEEE"></path> <path fill-rule="evenodd" clip-rule="evenodd" d="M100 85C91.7157 85 85 91.7157 85 100C85 108.284 91.7157 115 100 115C108.284 115 115 108.284 115 100C115 91.7157 108.284 85 100 85ZM75 100C75 86.1929 86.1929 75 100 75C113.807 75 125 86.1929 125 100C125 113.807 113.807 125 100 125C86.1929 125 75 113.807 75 100Z" fill="#3551A0"></path> <path fill-rule="evenodd" clip-rule="evenodd" d="M97.1311 40.4645C99.0838 38.5118 102.25 38.5118 104.202 40.4645L119.404 55.6667H140.667C143.428 55.6667 145.667 57.9052 145.667 60.6667V81.9289L160.869 97.1311C162.821 99.0838 162.821 102.25 160.869 104.202L145.667 119.404V140.667C145.667 143.428 143.428 145.667 140.667 145.667H119.404L104.202 160.869C102.25 162.821 99.0838 162.821 97.1311 160.869L81.9289 145.667H60.6667C57.9052 145.667 55.6667 143.428 55.6667 140.667V119.404L40.4645 104.202C38.5118 102.25 38.5118 99.0838 40.4645 97.1311L55.6667 81.9289V60.6667C55.6667 57.9052 57.9052 55.6667 60.6667 55.6667H81.9289L97.1311 40.4645ZM100.667 51.0711L87.5355 64.2022C86.5979 65.1399 85.3261 65.6667 84 65.6667H65.6667V84C65.6667 85.3261 65.1399 86.5979 64.2022 87.5355L51.0711 100.667L64.2022 113.798C65.1399 114.735 65.6667 116.007 65.6667 117.333V135.667H84C85.3261 135.667 86.5979 136.193 87.5355 137.131L100.667 150.262L113.798 137.131C114.735 136.193 116.007 135.667 117.333 135.667H135.667V117.333C135.667 116.007 136.193 114.735 137.131 113.798L150.262 100.667L137.131 87.5355C136.193 86.5979 135.667 85.3261 135.667 84V65.6667H117.333C116.007 65.6667 114.735 65.1399 113.798 64.2022L100.667 51.0711Z" fill="#3551A0"></path> </svg> 