<?xml version="1.0" encoding="UTF-8"?> <svg xmlns="http://www.w3.org/2000/svg" width="80" height="80" viewBox="0 0 80 80" fill="none"> <path fill-rule="evenodd" clip-rule="evenodd" d="M68 8H12C9.79086 8 8 9.79086 8 12V68C8 70.2091 9.79086 72 12 72H68C70.2091 72 72 70.2091 72 68V12C72 9.79086 70.2091 8 68 8ZM12 0C5.37258 0 0 5.37258 0 12V68C0 74.6274 5.37258 80 12 80H68C74.6274 80 80 74.6274 80 68V12C80 5.37258 74.6274 0 68 0H12Z" fill="#3551A0"></path> <path fill-rule="evenodd" clip-rule="evenodd" d="M63.9999 22.6467C65.6564 24.1083 65.8144 26.636 64.3528 28.2925L39.8163 56.1005C36.7632 59.5607 31.4238 59.7274 28.1608 56.4644L15.9999 44.3035C14.4378 42.7414 14.4378 40.2088 15.9999 38.6467C17.562 37.0846 20.0947 37.0846 21.6568 38.6467L30.8069 47.7968C32.4384 49.4283 35.1082 49.345 36.6347 47.6149L58.3541 22.9996C59.8157 21.3431 62.3434 21.1851 63.9999 22.6467Z" fill="#3551A0"></path> </svg> 