<?xml version="1.0" encoding="UTF-8"?> <svg xmlns="http://www.w3.org/2000/svg" width="88" height="88" viewBox="0 0 88 88" fill="none"> <path fill-rule="evenodd" clip-rule="evenodd" d="M58.652 11.1166C51.561 7.95702 43.6385 7.17429 36.0663 8.88514C28.494 10.596 21.6777 14.7088 16.6338 20.6101C11.59 26.5114 8.58883 33.885 8.07804 41.6313C7.56725 49.3776 9.57417 57.0815 13.7995 63.5941C18.0248 70.1066 24.2421 75.0788 31.5241 77.7691C38.8061 80.4594 46.7628 80.7238 54.2073 78.5227C61.6518 76.3215 68.1854 71.7729 72.8336 65.5552C77.4818 59.3374 79.9956 51.7837 80 44.0206V40.3429C80 38.1338 81.7909 36.3429 84 36.3429C86.2092 36.3429 88 38.1338 88 40.3429V44.0229C87.9946 53.5112 84.9222 62.7458 79.2411 70.3452C73.5599 77.9447 65.5744 83.5041 56.4756 86.1943C47.3767 88.8846 37.6519 88.5615 28.7517 85.2734C19.8514 81.9852 12.2525 75.908 7.08823 67.9483C1.92397 59.9885 -0.528919 50.5727 0.0953779 41.105C0.719675 31.6373 4.38771 22.625 10.5524 15.4123C16.7172 8.19959 25.0483 3.17287 34.3032 1.08183C43.5582 -1.00921 53.2412 -0.0525329 61.908 3.80919C63.9259 4.70831 64.8329 7.07301 63.9337 9.0909C63.0346 11.1088 60.6699 12.0157 58.652 11.1166Z" fill="#3551A0"></path> <path fill-rule="evenodd" clip-rule="evenodd" d="M86.827 9.1936C88.3899 10.7549 88.3912 13.2876 86.8298 14.8505L46.8298 54.8905C46.0798 55.6412 45.0622 56.0632 44.001 56.0634C42.9398 56.0637 41.922 55.6423 41.1716 54.8919L29.1716 42.8919C27.6095 41.3298 27.6095 38.7971 29.1716 37.235C30.7337 35.6729 33.2663 35.6729 34.8284 37.235L43.9986 46.4052L81.1702 9.19642C82.7315 7.63355 85.2641 7.63228 86.827 9.1936Z" fill="#3551A0"></path> </svg> 