<?xml version="1.0" encoding="UTF-8" standalone="no"?> <svg xmlns:dc="http://purl.org/dc/elements/1.1/" xmlns:cc="http://creativecommons.org/ns#" xmlns:rdf="http://www.w3.org/1999/02/22-rdf-syntax-ns#" xmlns:svg="http://www.w3.org/2000/svg" xmlns="http://www.w3.org/2000/svg" viewBox="0 0 1151.7467 200.25333" height="200.25333" width="1151.7467" xml:space="preserve" id="svg2"> <metadata id="metadata8"></metadata> <defs id="defs6"></defs> <g transform="matrix(1.3333333,0,0,-1.3333333,0,200.25333)" id="g10"> <g transform="scale(0.1)" id="g12"> <path id="path14" style="fill:#b8213c;fill-opacity:1;fill-rule:nonzero;stroke:none" d="M 3653.68,1159.1 V 475.871 H 3516.67 V 920.238 L 3333.57,475.871 H 3229.91 L 3045.85,920.238 V 475.871 h -137 V 1159.1 h 155.59 l 217.3,-507.991 217.3,507.991 h 154.64"></path> <path id="path16" style="fill:#b8213c;fill-opacity:1;fill-rule:nonzero;stroke:none" d="m 4075,604.59 c 21.88,12.105 39.29,30.164 52.36,54.379 13.06,24.109 19.65,53.422 19.65,88.043 0,51.511 -13.6,91.234 -40.68,118.953 -27.08,27.719 -60.22,41.633 -99.3,41.633 -39.19,0 -72.01,-13.914 -98.35,-41.633 -26.45,-27.719 -39.72,-67.442 -39.72,-118.953 0,-51.508 12.95,-91.231 38.66,-118.949 25.8,-27.719 58.3,-41.528 97.39,-41.528 24.85,0 48.11,5.945 69.99,18.055 z M 3864.07,501.781 c -41.74,23.153 -74.56,55.973 -98.35,98.453 -23.79,42.379 -35.68,91.34 -35.68,146.778 0,55.441 12.21,104.402 36.64,146.777 24.53,42.484 57.88,75.305 100.36,98.457 42.38,23.154 89.75,34.724 141.9,34.724 52.25,0 99.51,-11.57 141.89,-34.724 42.48,-23.152 75.94,-55.973 100.37,-98.457 24.53,-42.375 36.74,-91.336 36.74,-146.777 0,-55.438 -12.64,-104.399 -37.7,-146.778 -25.17,-42.48 -59.05,-75.3 -101.85,-98.453 -42.7,-23.152 -90.49,-34.73 -143.38,-34.73 -52.15,0 -99.2,11.578 -140.94,34.73"></path> <path id="path18" style="fill:#b8213c;fill-opacity:1;fill-rule:nonzero;stroke:none" d="m 4736.14,832.617 c -13.07,23.895 -30.7,42.164 -52.79,54.906 -22.2,12.641 -46.09,19.012 -71.48,19.012 -25.49,0 -48.96,-6.16 -70.52,-18.586 -21.56,-12.426 -38.98,-30.48 -52.36,-54.269 -13.38,-23.899 -20.07,-52.043 -20.07,-84.649 0,-32.711 6.69,-61.176 20.07,-85.711 13.38,-24.425 31.01,-43.222 52.89,-56.289 21.88,-13.062 45.14,-19.539 69.99,-19.539 25.39,0 49.28,6.371 71.48,19.117 22.09,12.637 39.72,30.907 52.79,54.801 13.06,23.789 19.64,52.36 19.64,85.602 0,33.246 -6.58,61.812 -19.64,85.605 z m -374.38,62.235 c 21.88,42.378 51.72,74.984 89.53,97.82 37.92,22.828 79.97,34.298 126.28,34.298 35.26,0 68.82,-7.64 100.79,-23.04 31.97,-15.297 57.46,-35.688 76.36,-61.18 v 257.45 h 139.03 V 475.871 h -139.03 v 80.289 c -16.99,-26.765 -40.78,-48.324 -71.37,-64.57 -30.69,-16.36 -66.27,-24.539 -106.74,-24.539 -45.67,0 -87.4,11.789 -125.32,35.262 -37.81,23.472 -67.65,56.609 -89.53,99.41 -21.88,42.695 -32.82,91.761 -32.82,147.308 0,54.801 10.94,103.34 32.82,145.821"></path> <path id="path20" style="fill:#b8213c;fill-opacity:1;fill-rule:nonzero;stroke:none" d="m 5365.62,797.887 c -0.74,35.261 -13.38,63.511 -38.23,84.644 -24.75,21.242 -55.12,31.864 -91.02,31.864 -33.88,0 -62.45,-10.301 -85.6,-30.801 -23.16,-20.602 -37.39,-49.172 -42.59,-85.707 z m 137.97,-91.977 h -396.37 c 3.19,-39.187 16.89,-69.777 41.1,-91.972 24.11,-22.2 53.85,-33.352 89.01,-33.352 50.97,0 87.19,21.879 108.65,65.637 h 147.83 c -15.71,-52.254 -45.66,-95.16 -90.06,-128.723 -44.39,-33.672 -98.88,-50.449 -163.45,-50.449 -52.25,0 -98.99,11.578 -140.51,34.73 -41.42,23.153 -73.71,55.973 -96.86,98.453 -23.16,42.379 -34.73,91.34 -34.73,146.778 0,56.078 11.36,105.359 34.2,147.84 22.83,42.378 54.9,74.984 96.01,97.82 41.1,22.828 88.36,34.298 141.89,34.298 51.51,0 97.71,-11.15 138.49,-33.24 40.79,-22.195 72.44,-53.738 94.95,-94.523 22.52,-40.781 33.78,-87.621 33.78,-140.406 0,-19.649 -1.28,-37.278 -3.93,-52.891"></path> <path id="path22" style="fill:#b8213c;fill-opacity:1;fill-rule:nonzero;stroke:none" d="m 5788.86,1001.48 c 28.35,16.36 60.85,24.54 97.39,24.54 V 882.109 h -36.22 c -43.01,0 -75.51,-10.089 -97.39,-30.375 -21.88,-20.179 -32.82,-55.441 -32.82,-105.675 V 475.871 h -137 v 542.289 h 137 v -84.222 c 17.63,28.781 40.68,51.296 69.04,67.542"></path> <path id="path24" style="fill:#b8213c;fill-opacity:1;fill-rule:nonzero;stroke:none" d="m 6410.91,964.844 c 39.72,-40.785 59.69,-97.817 59.69,-170.887 V 475.871 h -137.11 v 299.5 c 0,43.117 -10.73,76.254 -32.29,99.41 -21.46,23.153 -50.87,34.731 -88.05,34.731 -37.91,0 -67.76,-11.578 -89.53,-34.731 -21.88,-23.156 -32.82,-56.293 -32.82,-99.41 v -299.5 h -137 v 542.289 h 137 v -67.547 c 18.27,23.469 41.64,41.95 69.99,55.337 28.36,13.38 59.48,20.07 93.47,20.07 64.57,0 116.82,-20.39 156.65,-61.176"></path> <path id="path26" style="fill:#29417e;fill-opacity:1;fill-rule:nonzero;stroke:none" d="M 7447.34,1159.1 7256.49,475.871 H 7094.95 L 6966.76,962.402 6832.72,475.871 6672.14,474.91 6488.19,1159.1 h 146.78 L 6755.3,628.594 6894.32,1159.1 h 152.73 l 131.16,-527.534 121.4,527.534 h 147.73"></path> <path id="path28" style="fill:#29417e;fill-opacity:1;fill-rule:nonzero;stroke:none" d="m 7852.04,832.617 c -13.06,23.895 -30.69,42.164 -52.78,54.906 -22.2,12.641 -46.1,19.012 -71.48,19.012 -25.49,0 -48.96,-6.16 -70.52,-18.586 -21.56,-12.426 -38.98,-30.48 -52.36,-54.269 -13.38,-23.899 -20.07,-52.043 -20.07,-84.649 0,-32.711 6.69,-61.176 20.07,-85.711 13.38,-24.425 31.01,-43.222 52.89,-56.289 21.88,-13.062 45.14,-19.539 69.99,-19.539 25.38,0 49.28,6.371 71.48,19.117 22.09,12.637 39.72,30.907 52.78,54.801 13.07,23.789 19.65,52.36 19.65,85.602 0,33.246 -6.58,61.812 -19.65,85.605 z m -374.38,62.235 c 21.88,42.378 51.51,74.984 89.11,97.82 37.49,22.828 79.44,34.298 125.75,34.298 40.46,0 75.83,-8.17 106.21,-24.53 30.37,-16.249 54.59,-36.854 72.96,-61.6 v 77.32 h 137.96 V 475.871 h -137.96 v 79.332 c -17.63,-25.488 -41.95,-46.519 -72.96,-63.191 -31.02,-16.571 -66.7,-24.961 -107.17,-24.961 -45.66,0 -87.3,11.789 -124.79,35.262 -37.6,23.472 -67.23,56.609 -89.11,99.41 -21.88,42.695 -32.81,91.761 -32.81,147.308 0,54.801 10.93,103.34 32.81,145.821"></path> <path id="path30" style="fill:#29417e;fill-opacity:1;fill-rule:nonzero;stroke:none" d="M 8638.08,1018.16 8302.36,219.48 H 8156.54 L 8274,489.57 8056.7,1018.16 h 153.68 l 139.99,-378.84 141.89,378.84 h 145.82"></path> <path id="path32" style="fill:#29417e;fill-opacity:1;fill-rule:nonzero;stroke:none" d="M 1761.7,805.266 V 463.969 h 283.22 c 10.14,1.121 14.03,3.89 22.12,9.211 l 233.55,170.855 c 72,61.254 88.7,80.102 149.03,148.117 22.64,25.711 45.28,57.258 63.41,88.293 33.69,57.364 54.39,113.289 60.33,167.065 v 62.28 c -8.3,72.11 -46.4,139.92 -119.03,201.58 -152.92,129.68 -410.23,181.81 -648.07,190.52 h -147.09 c -51.63,-1.94 -100.79,-5.73 -146.07,-11.06 -225.45,-26.53 -468.11,-86.76 -675.526,-185.5 -16.183,-7.69 -32.777,-14.85 -47.426,-22.85 l -48.757,-24.89 c -34.11,-15.67 -102.84,-59.71 -137.77,-80.81 -15.566,-9.32 -30.012,-20.39 -44.246,-30.01 -76.621,-51.63 -164.301,-125.69 -231.805,-193.598 -7.168,-7.172 -5.121,-0.512 -7.781,-12.09 13.313,-3.992 11.367,-17.922 32.981,7.891 l 29.398,29.398 c 20.484,19.766 40.461,36.159 62.379,54.799 45.379,38.82 83.379,64.84 132.137,97.51 87.988,58.9 199.839,116.06 302.988,154.78 133.368,50.09 295.508,96.49 445.978,114.82 32.58,3.89 68.73,10.14 100.9,11.06 32.88,0.92 70.47,7.17 104.48,6.97 194.1,-1.13 312.92,-0.21 498.12,-55.72 77.53,-23.26 163.37,-60.33 226.26,-116.47 19.26,-17.1 41.08,-40.15 54.19,-63.92 34.83,-63.3 37.18,-123.12 8.6,-195.841 -26.73,-67.808 -80.92,-121.074 -126.81,-166.347 -10.96,-10.961 -19.66,-17.414 -30.72,-27.86 -29.5,-27.761 -181.72,-137.359 -205.27,-143.609 V 1038.39 H 1758.52 L 1478.79,697.301 V 1038.39 H 1286.53 V 463.969 h 192.26 l 282.91,341.297"></path> <path id="path34" style="fill:#b8213c;fill-opacity:1;fill-rule:nonzero;stroke:none" d="M 1094.57,801.781 V 463.969 h 191.85 l 0.11,574.421 H 1104.1 L 811.656,697.301 V 1038.39 H 528.848 c -20.793,-4.4 -72.727,-43.222 -87.785,-53.464 -30.317,-20.692 -58.075,-40.153 -86.86,-61.973 C 326.035,901.75 299.918,880.754 273.184,858.016 259.047,846.031 246.961,835.48 233.234,823.188 170.754,766.648 104.582,695.457 60.8438,621.398 23.7617,558.609 3.99609,499.609 0,444.398 V 403.43 C 5.94141,323.23 47.2188,252.141 119.023,191.191 224.016,102.078 372.742,53.6289 531,24.0313 659.551,0.0585938 793.117,-1.28125 928.633,0.570313 944.512,0.78125 945.535,3.33984 959.262,4.26172 971.449,4.96875 983.023,3.23047 995.316,5.17969 L 1121.72,18.6992 c 17.82,2.25 43.43,6.25 61.97,9.8321 40.97,7.9882 82.55,14.957 120.66,23.5585 314.05,71.0902 626.36,208.3402 875.06,433.1802 12.6,11.371 68.42,59 72.62,76.722 -9.11,2.66 -3.38,0.918 -10.75,6.453 -12.5,-3.793 -45.48,-41.691 -59.72,-54.289 -60.23,-53.676 -95.57,-82.765 -161.02,-127.527 -12.19,-8.301 -22.84,-14.75 -35.03,-23.051 -60.95,-41.687 -155.69,-88.09 -221.66,-118.098 -51.83,-23.558 -109.19,-44.66 -163.38,-62.179 -110.11,-35.442 -296.94,-80.403 -413.71,-88.4924 -14.04,-1.0273 -35.95,-2.1484 -51.42,-4.5078 -60.54,-9.2227 -143.199,-5.9414 -212.953,-5.9414 -196.258,0 -556.301,57.4606 -660.473,240.9106 -74.773,131.73 22.637,249.933 93.93,331.164 5.734,6.449 7.269,7.882 13.109,13.004 101.203,88.296 107.86,93.625 215.106,163.89 11.265,7.375 22.429,16.902 37.078,20.692 V 463.969 h 190.519 l 282.914,337.812"></path> </g> </g> </svg> 